nColumns=19
nRows=64
DataType=double
version=3
OpenSimVersion=4.1
endheader
time	ground_force_calcn_r_vx	ground_force_calcn_r_vy	ground_force_calcn_r_vz	ground_force_calcn_r_px	ground_force_calcn_r_py	ground_force_calcn_r_pz	ground_force_calcn_r_mx	ground_force_calcn_r_my	ground_force_calcn_r_mz	ground_force_calcn_l_vx	ground_force_calcn_l_vy	ground_force_calcn_l_vz	ground_force_calcn_l_px	ground_force_calcn_l_py	ground_force_calcn_l_pz	ground_force_calcn_l_mx	ground_force_calcn_l_my	ground_force_calcn_l_mz
3.3	6.57374	310.352	-34.0197	-0.269012	0	-0.409169	-0.0287059	-1.35523	0.148555	-6.58211	262.416	37.9996	-0.223771	0	-0.768918	-0.00861756	0.343566	0.0497505
3.31	6.65813	306.382	-33.2569	-0.270186	0	-0.409489	-0.027938	-1.2856	0.139548	-6.55971	257.496	36.6121	-0.225913	0	-0.76837	-0.00849036	0.333282	0.0473878
3.32	6.67636	302.261	-32.6484	-0.271293	0	-0.409764	-0.0266637	-1.20716	0.13039	-6.38933	252.035	35.2286	-0.228194	0	-0.767824	-0.00838402	0.330718	0.0462267
3.33	6.6497	298.015	-32.1872	-0.272328	0	-0.409992	-0.0250555	-1.1229	0.121279	-6.07781	246.105	33.8711	-0.230593	0	-0.767284	-0.00828573	0.335508	0.0461756
3.34	6.60159	293.675	-31.8582	-0.273284	0	-0.410174	-0.0232821	-1.03571	0.112355	-5.64282	239.801	32.5612	-0.233086	0	-0.766754	-0.00817163	0.347267	0.0471533
3.35	6.55155	289.273	-31.6385	-0.274157	0	-0.410313	-0.0214747	-0.94818	0.103705	-5.10996	233.245	31.3182	-0.235647	0	-0.766235	-0.00801324	0.365765	0.049112
3.36	6.5109	284.856	-31.4984	-0.274935	0	-0.410412	-0.0197116	-0.862395	0.0953607	-4.5067	226.579	30.1578	-0.238247	0	-0.765731	-0.00777671	0.390982	0.05204
3.37	6.48192	280.489	-31.4048	-0.275604	0	-0.410476	-0.0180249	-0.779986	0.0873306	-3.85743	219.963	29.0917	-0.240858	0	-0.765244	-0.00742015	0.42312	0.0559608
3.38	6.46274	276.266	-31.3259	-0.27615	0	-0.410511	-0.0164276	-0.702238	0.0796268	-3.1831	213.561	28.1278	-0.243448	0	-0.764776	-0.00689348	0.462498	0.0609149
3.39	6.45356	272.304	-31.2348	-0.276554	0	-0.410525	-0.0149353	-0.630187	0.0722859	-2.50104	207.539	27.2707	-0.24598	0	-0.764326	-0.00613779	0.509321	0.0669251
3.4	6.45706	268.733	-31.1126	-0.276804	0	-0.410521	-0.01357	-0.564764	0.0653857	-1.82238	202.047	26.5229	-0.248417	0	-0.7639	-0.00508434	0.5637	0.0739971
3.41	6.4764	265.683	-30.95	-0.276888	0	-0.410506	-0.012354	-0.506801	0.0590385	-1.15019	197.208	25.8842	-0.25072	0	-0.763497	-0.00364865	0.625587	0.0821104
3.42	6.51413	263.269	-30.7467	-0.276799	0	-0.410483	-0.0113063	-0.456945	0.0533658	-0.482975	193.096	25.3521	-0.252847	0	-0.76312	-0.00173733	0.694593	0.0911951
3.43	6.57528	261.566	-30.5086	-0.276533	0	-0.410453	-0.0104473	-0.415596	0.0484744	0.179251	189.737	24.921	-0.254761	0	-0.762771	0.000727227	0.769773	0.101105
3.44	6.67243	260.591	-30.2435	-0.276094	0	-0.410416	-0.00980885	-0.383083	0.0444596	0.833809	187.114	24.5814	-0.256424	0	-0.762449	0.00378643	0.849709	0.111627
3.45	6.82436	260.292	-29.9596	-0.275491	0	-0.41037	-0.00943254	-0.359772	0.0414098	1.47632	185.174	24.3203	-0.257815	0	-0.762152	0.00743646	0.932753	0.122506
3.46	7.0471	260.562	-29.666	-0.274733	0	-0.410311	-0.00936085	-0.346111	0.0394061	2.10377	183.853	24.1225	-0.25892	0	-0.761876	0.0116396	1.01721	0.133464
3.47	7.34168	261.258	-29.3724	-0.273823	0	-0.410235	-0.0096249	-0.342508	0.038507	2.71364	183.102	23.9732	-0.259733	0	-0.761614	0.0163243	1.10148	0.144215
3.48	7.68806	262.235	-29.0882	-0.272761	0	-0.41014	-0.0102424	-0.349362	0.0387528	3.30069	182.9	23.8608	-0.26026	0	-0.761364	0.0213703	1.18419	0.154487
3.49	8.0478	263.359	-28.8238	-0.271539	0	-0.410018	-0.0112169	-0.367067	0.0401743	3.85695	183.256	23.7765	-0.260514	0	-0.761123	0.0266113	1.26439	0.164047
3.5	8.37582	264.528	-28.5896	-0.270148	0	-0.409864	-0.0125279	-0.395661	0.0427621	4.37455	184.176	23.712	-0.260515	0	-0.760889	0.0318699	1.34177	0.172749
3.51	8.63413	265.668	-28.3943	-0.26858	0	-0.409673	-0.0141263	-0.434659	0.0464558	4.84586	185.646	23.6588	-0.260282	0	-0.760661	0.0369821	1.41679	0.180557
3.52	8.79741	266.752	-28.2432	-0.266832	0	-0.409444	-0.0159329	-0.483113	0.051151	5.25554	187.653	23.6131	-0.259834	0	-0.760443	0.0417369	1.49025	0.187523
3.53	8.85161	267.819	-28.1369	-0.264904	0	-0.409183	-0.0178388	-0.539742	0.056705	5.58009	190.199	23.5778	-0.259186	0	-0.760238	0.0458596	1.56314	0.193773
3.54	8.79011	268.98	-28.073	-0.262806	0	-0.408897	-0.0197148	-0.603278	0.0629632	5.79333	193.29	23.5612	-0.25835	0	-0.760055	0.0490513	1.63656	0.199489
3.55	8.61159	270.399	-28.0475	-0.260555	0	-0.408597	-0.0214265	-0.672779	0.069785	5.87397	196.919	23.5747	-0.25734	0	-0.759903	0.0510543	1.71155	0.204902
3.56	8.31697	272.273	-28.0602	-0.258175	0	-0.408293	-0.0228454	-0.747889	0.0770769	5.80874	201.073	23.6335	-0.256171	0	-0.759789	0.0516794	1.78891	0.210263
3.57	7.90757	274.808	-28.1157	-0.255704	0	-0.408	-0.0238491	-0.828815	0.0847965	5.59199	205.741	23.7552	-0.254862	0	-0.759721	0.0508009	1.86907	0.215806
3.58	7.38577	278.177	-28.2183	-0.253183	0	-0.407728	-0.0243239	-0.916136	0.0929329	5.22699	210.908	23.9543	-0.253439	0	-0.759699	0.0483843	1.9523	0.221736
3.59	6.75772	282.489	-28.3681	-0.250659	0	-0.407489	-0.0241757	-1.0106	0.101487	4.72809	216.528	24.2365	-0.251928	0	-0.759723	0.0445172	2.03871	0.228198
3.6	6.0371	287.771	-28.5595	-0.248179	0	-0.407289	-0.0233476	-1.11291	0.11045	4.12475	222.506	24.5943	-0.25036	0	-0.759784	0.0394522	2.12821	0.235238
3.61	5.24737	293.975	-28.7823	-0.245783	0	-0.407131	-0.021839	-1.22349	0.119789	3.45762	228.711	25.0098	-0.248765	0	-0.759871	0.0335694	2.22051	0.242816
3.62	4.42239	300.98	-29.0232	-0.243505	0	-0.407018	-0.0197224	-1.34227	0.129434	2.77281	235.006	25.4604	-0.247166	0	-0.759975	0.0273185	2.31534	0.250843
3.63	3.60389	308.606	-29.2683	-0.241369	0	-0.406947	-0.0171503	-1.4686	0.139283	2.11532	241.265	25.9225	-0.245581	0	-0.760084	0.021151	2.4124	0.259198
3.64	2.8364	316.631	-29.5053	-0.239386	0	-0.40691	-0.0143447	-1.60132	0.149219	1.52102	247.38	26.3748	-0.24402	0	-0.760192	0.0154416	2.51144	0.267761
3.65	2.16116	324.82	-29.7243	-0.237557	0	-0.406904	-0.0115693	-1.73885	0.159123	1.01084	253.272	26.803	-0.24249	0	-0.760295	0.0104267	2.61247	0.27647
3.66	1.61031	332.94	-29.9188	-0.235872	0	-0.406917	-0.00909037	-1.87948	0.168895	0.590486	258.897	27.1996	-0.240994	0	-0.76039	0.00619427	2.71587	0.285327
3.67	1.20224	340.779	-30.0866	-0.234317	0	-0.406943	-0.00713256	-2.02175	0.178496	0.254501	264.241	27.5618	-0.239531	0	-0.760479	0.00271827	2.82231	0.294382
3.68	0.939538	348.154	-30.2316	-0.232869	0	-0.406973	-0.00584169	-2.16469	0.187969	-0.00833866	269.3	27.8889	-0.238103	0	-0.760562	-9.08166e-05	2.93296	0.303739
3.69	0.810948	354.92	-30.3623	-0.23151	0	-0.406997	-0.005273	-2.30779	0.197424	-0.21197	274.067	28.1821	-0.236708	0	-0.760643	-0.00235843	3.04934	0.313561
3.7	0.799325	360.972	-30.4879	-0.230217	0	-0.407005	-0.00542721	-2.45091	0.207005	-0.372177	278.524	28.4443	-0.23535	0	-0.760726	-0.00423989	3.17299	0.324041
3.71	0.888808	366.245	-30.6145	-0.228976	0	-0.406992	-0.00629562	-2.59419	0.216849	-0.50651	282.64	28.6783	-0.234026	0	-0.760818	-0.00592348	3.30539	0.335384
3.72	1.06391	370.71	-30.7433	-0.227772	0	-0.406952	-0.00785694	-2.73769	0.227039	-0.63334	286.379	28.8855	-0.23273	0	-0.760923	-0.00762567	3.44812	0.347794
3.73	1.30973	374.382	-30.8719	-0.226596	0	-0.406882	-0.0100803	-2.88142	0.237605	-0.770029	289.712	29.0663	-0.231459	0	-0.761048	-0.0095758	3.60275	0.361457
3.74	1.61303	377.313	-30.9958	-0.225441	0	-0.406783	-0.0129338	-3.02541	0.248534	-0.933408	292.628	29.2223	-0.230205	0	-0.761198	-0.0120274	3.77066	0.376543
3.75	1.9625	379.597	-31.11	-0.224305	0	-0.406658	-0.0163882	-3.16989	0.25979	-1.13939	295.142	29.3576	-0.228962	0	-0.761378	-0.0152603	3.95294	0.393197
3.76	2.34758	381.356	-31.21	-0.223188	0	-0.406509	-0.0204091	-3.31538	0.27133	-1.40183	297.295	29.4782	-0.227724	0	-0.761592	-0.0195704	4.15042	0.411535
3.77	2.7557	382.729	-31.2924	-0.222092	0	-0.406341	-0.0249327	-3.46281	0.283123	-1.73117	299.148	29.591	-0.22649	0	-0.761844	-0.0252513	4.36344	0.43162
3.78	3.16916	383.859	-31.3562	-0.221016	0	-0.406154	-0.0298327	-3.61344	0.295169	-2.13361	300.776	29.7012	-0.225259	0	-0.762134	-0.0325735	4.59192	0.453445
3.79	3.56376	384.881	-31.404	-0.219965	0	-0.405952	-0.0348954	-3.76865	0.307499	-2.61069	302.257	29.8108	-0.224033	0	-0.762461	-0.0417657	4.8355	0.476913
3.8	3.91227	385.91	-31.4407	-0.218937	0	-0.405737	-0.0398374	-3.9296	0.320151	-3.15951	303.665	29.9166	-0.222816	0	-0.762823	-0.0529977	5.09368	0.501822
3.81	4.18994	387.045	-31.4708	-0.21794	0	-0.405513	-0.0443546	-4.09725	0.333149	-3.77267	305.063	30.0091	-0.221611	0	-0.763212	-0.0663574	5.36574	0.527828
3.82	4.37844	388.363	-31.4957	-0.216976	0	-0.405284	-0.0481666	-4.27233	0.34648	-4.43707	306.497	30.0729	-0.220422	0	-0.763623	-0.0818044	5.65076	0.55444
3.83	4.46713	389.916	-31.5117	-0.216052	0	-0.405055	-0.0510448	-4.45548	0.360077	-5.133	307.997	30.0892	-0.219254	0	-0.764045	-0.0991209	5.94758	0.581038
3.84	4.45124	391.729	-31.5096	-0.215175	0	-0.404834	-0.0528061	-4.64718	0.373806	-5.83604	309.575	30.0392	-0.218109	0	-0.764468	-0.117914	6.25479	0.606925
3.85	4.33008	393.806	-31.4748	-0.214351	0	-0.404628	-0.0533013	-4.84757	0.38744	-6.52241	311.242	29.9078	-0.216997	0	-0.764883	-0.137697	6.57074	0.631394
3.86	4.10693	396.13	-31.389	-0.213583	0	-0.404442	-0.0524231	-5.05643	0.400667	-7.17231	313.007	29.6858	-0.21592	0	-0.765281	-0.15796	6.89353	0.653788
3.87	3.78822	398.671	-31.2324	-0.212876	0	-0.404284	-0.0501062	-5.27317	0.413106	-7.77079	314.88	29.3705	-0.214886	0	-0.765653	-0.178205	7.22103	0.673545
3.88	3.38289	401.39	-30.9849	-0.212234	0	-0.404156	-0.0463287	-5.49704	0.424338	-8.3066	316.873	28.9647	-0.213904	0	-0.765994	-0.197942	7.55091	0.690213
3.89	2.9032	404.24	-30.6288	-0.211656	0	-0.404064	-0.0411323	-5.72722	0.433945	-8.77102	318.996	28.4741	-0.212981	0	-0.766299	-0.216683	7.8806	0.703435
3.9	2.36542	407.169	-30.1502	-0.211143	0	-0.404011	-0.0346404	-5.96279	0.441536	-9.15645	321.246	27.905	-0.212129	0	-0.766563	-0.233933	8.20732	0.712928
3.91	1.78936	410.118	-29.542	-0.210694	0	-0.403995	-0.0270618	-6.20252	0.446786	-9.45516	323.608	27.2614	-0.211357	0	-0.766784	-0.249173	8.52809	0.718422
3.92	1.19604	413.024	-28.805	-0.210304	0	-0.404017	-0.0186627	-6.44473	0.449467	-9.65942	326.047	26.5439	-0.210671	0	-0.766959	-0.26188	8.83959	0.719642
3.93	0.605807	415.818	-27.9492	-0.20997	0	-0.404072	-0.00974265	-6.68722	0.449481	-9.76213	328.5	25.7502	-0.210078	0	-0.76708	-0.271562	9.13819	0.716316
